<svg width="12" height="20" viewBox="0 0 12 20" fill="none" xmlns="http://www.w3.org/2000/svg">
<path d="M9.125 19.1L0.699999 10.7C0.599999 10.6 0.528999 10.4917 0.486999 10.375C0.444999 10.2584 0.424333 10.1334 0.425 10C0.425 9.86669 0.445666 9.74169 0.486999 9.62502C0.528333 9.50836 0.599333 9.40002 0.699999 9.30002L9.125 0.875024C9.35833 0.641691 9.65 0.525024 10 0.525024C10.35 0.525024 10.65 0.650024 10.9 0.900024C11.15 1.15002 11.275 1.44169 11.275 1.77502C11.275 2.10836 11.15 2.40002 10.9 2.65002L3.55 10L10.9 17.35C11.1333 17.5834 11.25 17.871 11.25 18.213C11.25 18.555 11.125 18.8507 10.875 19.1C10.625 19.35 10.3333 19.475 10 19.475C9.66667 19.475 9.375 19.35 9.125 19.1Z" fill="#CF919C"/>
</svg>
